<svg width="25" height="25" viewBox="0 0 25 25" fill="none" xmlns="http://www.w3.org/2000/svg">
<mask id="mask0_2372_2252" style="mask-type:alpha" maskUnits="userSpaceOnUse" x="0" y="0" width="25" height="25">
<rect x="0.271973" y="0.505127" width="24" height="24" fill="#D9D9D9"/>
</mask>
<g mask="url(#mask0_2372_2252)">
<path d="M6.60287 20.5044C6.34569 20.3876 6.27126 20.1863 6.27198 19.9143C6.27893 17.4093 6.28026 14.9042 6.27595 12.3991C6.27595 12.0174 6.43754 11.8588 6.82676 11.8588H16.717C17.1062 11.8588 17.268 12.0174 17.268 12.3991C17.268 14.9041 17.2652 17.4092 17.272 19.9143C17.2727 20.1865 17.1977 20.3874 16.9411 20.5046L6.60287 20.5044ZM14.2974 10.9729C14.2974 10.5675 14.2966 10.1687 14.2976 9.76986C14.3002 9.39771 14.2188 9.02965 14.0591 8.69248C13.582 7.68252 12.4907 7.11662 11.3562 7.29016C10.2771 7.4552 9.41247 8.3386 9.27238 9.42401C9.25557 9.56935 9.24744 9.71553 9.24802 9.86181C9.24468 10.2274 9.24694 10.5931 9.24694 10.9691H7.48207C7.47707 10.9608 7.46795 10.9527 7.46815 10.9448C7.48576 10.3162 7.44831 9.68018 7.53282 9.06038C7.78674 7.19805 9.4279 5.69382 11.3297 5.52365C13.6031 5.32009 15.5763 6.76955 16.0014 8.97755C16.0737 9.35264 16.0624 9.74438 16.0777 10.1289C16.0887 10.4059 16.0798 10.6837 16.0798 10.9729L14.2974 10.9729Z" fill="#9F9F9F"/>
</g>
</svg>
