<svg width="15" height="15" viewBox="0 0 15 15" fill="none" xmlns="http://www.w3.org/2000/svg">
<path d="M7.28159 8.98079C6.44886 8.98008 5.63505 8.7324 4.94312 8.26909C4.25118 7.80578 3.7122 7.14765 3.39437 6.37796C3.07653 5.60828 2.99412 4.76162 3.15756 3.94509C3.321 3.12856 3.72294 2.37885 4.31254 1.79079C4.90214 1.20274 5.65291 0.802773 6.46987 0.641484C7.28682 0.480195 8.13327 0.564834 8.90211 0.884692C9.67096 1.20455 10.3277 1.74526 10.7892 2.43841C11.2506 3.13157 11.4962 3.94602 11.4947 4.77875C11.4904 5.8938 11.0448 6.96181 10.2553 7.74924C9.46583 8.53667 8.39665 8.97946 7.28159 8.98079Z" fill="#9F9F9F"/>
<path d="M7.28109 14.5889C5.2088 14.5889 3.1365 14.5888 1.06421 14.5885C0.660067 14.5885 0.377781 14.4011 0.303015 14.0504C0.274445 13.9009 0.283319 13.7467 0.328845 13.6015C0.779641 12.1655 1.75763 11.2665 3.18377 10.8307C4.09749 10.5514 5.03884 10.4507 5.98726 10.41C7.14355 10.3603 8.30028 10.3612 9.45376 10.4715C10.5009 10.5717 11.5285 10.7552 12.4548 11.2951C13.3881 11.839 13.963 12.6613 14.2647 13.6829C14.295 13.7859 14.3014 13.8945 14.2832 14.0004C14.2651 14.1063 14.2229 14.2066 14.16 14.2936C14.097 14.3806 14.0149 14.4521 13.9201 14.5024C13.8252 14.5528 13.7201 14.5808 13.6127 14.5841C13.3336 14.5956 13.0536 14.5885 12.7741 14.5885C10.943 14.5888 9.11189 14.5888 7.28082 14.5885" fill="#9F9F9F"/>
</svg>
