<svg xmlns="http://www.w3.org/2000/svg" width="27" height="17" viewBox="0 0 27 17">
  <g id="mobile_menu" transform="translate(-4)">
    <path id="Path_19030" data-name="Path 19030" d="M5.5,0h24a1.5,1.5,0,0,1,0,3H5.5a1.5,1.5,0,0,1,0-3Z" fill="#f5faff"/>
    <path id="Path_19031" data-name="Path 19031" d="M5.5,0h19a1.5,1.5,0,0,1,0,3H5.5a1.5,1.5,0,0,1,0-3Z" transform="translate(0 7)" fill="#f5faff"/>
    <path id="Path_19032" data-name="Path 19032" d="M5.5,0h22a1.5,1.5,0,0,1,0,3H5.5a1.5,1.5,0,0,1,0-3Z" transform="translate(0 14)" fill="#f5faff"/>
  </g>
</svg>
