<svg width="123" height="38" viewBox="0 0 123 38" fill="none" xmlns="http://www.w3.org/2000/svg">
<path d="M27.59 16H26V11C26 10.45 25.55 10 25 10H21C20.45 10 20 10.45 20 11V16H18.41C17.52 16 17.07 17.08 17.7 17.71L22.29 22.3C22.68 22.69 23.31 22.69 23.7 22.3L28.29 17.71C28.92 17.08 28.48 16 27.59 16ZM16 26C16 26.55 16.45 27 17 27H29C29.55 27 30 26.55 30 26C30 25.45 29.55 25 29 25H17C16.45 25 16 25.45 16 26Z" fill="#3D5CB8"/>
<path d="M39.98 24V13.92H43.137C43.2303 13.92 43.403 13.9223 43.655 13.927C43.9117 13.9317 44.1567 13.9503 44.39 13.983C45.1787 14.081 45.8413 14.3633 46.378 14.83C46.9193 15.2967 47.3277 15.8893 47.603 16.608C47.8783 17.322 48.016 18.106 48.016 18.96C48.016 19.8187 47.8783 20.6073 47.603 21.326C47.3277 22.04 46.9193 22.6303 46.378 23.097C45.8413 23.559 45.1787 23.839 44.39 23.937C44.1567 23.9697 43.9117 23.9883 43.655 23.993C43.403 23.9977 43.2303 24 43.137 24H39.98ZM41.478 22.607H43.137C43.2957 22.607 43.4847 22.6023 43.704 22.593C43.9233 22.5837 44.117 22.565 44.285 22.537C44.7983 22.439 45.2137 22.2173 45.531 21.872C45.853 21.522 46.0887 21.0927 46.238 20.584C46.3873 20.0753 46.462 19.534 46.462 18.96C46.462 18.3673 46.385 17.819 46.231 17.315C46.077 16.8063 45.839 16.3817 45.517 16.041C45.1997 15.6957 44.789 15.4763 44.285 15.383C44.117 15.3503 43.921 15.3317 43.697 15.327C43.4777 15.3177 43.291 15.313 43.137 15.313H41.478V22.607ZM52.929 24.21C52.173 24.21 51.5173 24.0397 50.962 23.699C50.4067 23.3583 49.9773 22.8893 49.674 22.292C49.3753 21.69 49.226 20.997 49.226 20.213C49.226 19.4243 49.38 18.7313 49.688 18.134C49.996 17.532 50.4277 17.0653 50.983 16.734C51.5383 16.398 52.187 16.23 52.929 16.23C53.685 16.23 54.3407 16.4003 54.896 16.741C55.4513 17.0817 55.8807 17.5507 56.184 18.148C56.4873 18.7453 56.639 19.4337 56.639 20.213C56.639 21.0017 56.485 21.697 56.177 22.299C55.8737 22.8963 55.4443 23.3653 54.889 23.706C54.3337 24.042 53.6803 24.21 52.929 24.21ZM52.929 22.831C53.6523 22.831 54.1913 22.5883 54.546 22.103C54.9053 21.613 55.085 20.983 55.085 20.213C55.085 19.4243 54.903 18.7943 54.539 18.323C54.1797 17.847 53.643 17.609 52.929 17.609C52.439 17.609 52.0353 17.721 51.718 17.945C51.4007 18.1643 51.165 18.47 51.011 18.862C50.857 19.2493 50.78 19.6997 50.78 20.213C50.78 21.0063 50.962 21.641 51.326 22.117C51.69 22.593 52.2243 22.831 52.929 22.831ZM59.5138 24L57.2038 16.433L58.6528 16.44L60.2348 21.627L61.8308 16.44H63.0908L64.6868 21.627L66.2688 16.44H67.7108L65.4008 24H64.2248L62.4608 18.526L60.6898 24H59.5138ZM74.2704 24V20.283C74.2704 19.989 74.2447 19.688 74.1934 19.38C74.1467 19.0673 74.0534 18.778 73.9134 18.512C73.778 18.246 73.5844 18.0313 73.3324 17.868C73.085 17.7047 72.7607 17.623 72.3594 17.623C72.098 17.623 71.8507 17.6673 71.6174 17.756C71.384 17.84 71.1787 17.9777 71.0014 18.169C70.8287 18.3603 70.691 18.6123 70.5884 18.925C70.4904 19.2377 70.4414 19.618 70.4414 20.066L69.5314 19.723C69.5314 19.037 69.6597 18.4327 69.9164 17.91C70.173 17.3827 70.5417 16.972 71.0224 16.678C71.503 16.384 72.084 16.237 72.7654 16.237C73.288 16.237 73.7267 16.321 74.0814 16.489C74.436 16.657 74.723 16.8787 74.9424 17.154C75.1664 17.4247 75.3367 17.721 75.4534 18.043C75.57 18.365 75.6494 18.68 75.6914 18.988C75.7334 19.296 75.7544 19.5667 75.7544 19.8V24H74.2704ZM68.9574 24V16.44H70.2664V18.624H70.4414V24H68.9574ZM77.7177 24V13.71H79.1807V24H77.7177ZM84.5657 24.21C83.8097 24.21 83.1541 24.0397 82.5987 23.699C82.0434 23.3583 81.6141 22.8893 81.3107 22.292C81.0121 21.69 80.8627 20.997 80.8627 20.213C80.8627 19.4243 81.0167 18.7313 81.3247 18.134C81.6327 17.532 82.0644 17.0653 82.6197 16.734C83.1751 16.398 83.8237 16.23 84.5657 16.23C85.3217 16.23 85.9774 16.4003 86.5327 16.741C87.0881 17.0817 87.5174 17.5507 87.8207 18.148C88.1241 18.7453 88.2757 19.4337 88.2757 20.213C88.2757 21.0017 88.1217 21.697 87.8137 22.299C87.5104 22.8963 87.0811 23.3653 86.5257 23.706C85.9704 24.042 85.3171 24.21 84.5657 24.21ZM84.5657 22.831C85.2891 22.831 85.8281 22.5883 86.1827 22.103C86.5421 21.613 86.7217 20.983 86.7217 20.213C86.7217 19.4243 86.5397 18.7943 86.1757 18.323C85.8164 17.847 85.2797 17.609 84.5657 17.609C84.0757 17.609 83.6721 17.721 83.3547 17.945C83.0374 18.1643 82.8017 18.47 82.6477 18.862C82.4937 19.2493 82.4167 19.6997 82.4167 20.213C82.4167 21.0063 82.5987 21.641 82.9627 22.117C83.3267 22.593 83.8611 22.831 84.5657 22.831ZM91.949 24.21C91.389 24.21 90.92 24.1073 90.542 23.902C90.164 23.692 89.877 23.4167 89.681 23.076C89.4897 22.7307 89.394 22.3527 89.394 21.942C89.394 21.5593 89.4617 21.2233 89.597 20.934C89.7323 20.6447 89.933 20.3997 90.199 20.199C90.465 19.9937 90.7917 19.828 91.179 19.702C91.515 19.604 91.8953 19.5177 92.32 19.443C92.7447 19.3683 93.1903 19.2983 93.657 19.233C94.1283 19.1677 94.595 19.1023 95.057 19.037L94.525 19.331C94.5343 18.7383 94.4083 18.2997 94.147 18.015C93.8903 17.7257 93.447 17.581 92.817 17.581C92.4203 17.581 92.0563 17.6743 91.725 17.861C91.3937 18.043 91.1627 18.3463 91.032 18.771L89.667 18.351C89.8537 17.7023 90.2083 17.1867 90.731 16.804C91.2583 16.4213 91.9583 16.23 92.831 16.23C93.5077 16.23 94.0957 16.3467 94.595 16.58C95.099 16.8087 95.4677 17.1727 95.701 17.672C95.8223 17.9193 95.897 18.1807 95.925 18.456C95.953 18.7313 95.967 19.0277 95.967 19.345V24H94.672V22.271L94.924 22.495C94.6113 23.0737 94.2123 23.5053 93.727 23.79C93.2463 24.07 92.6537 24.21 91.949 24.21ZM92.208 23.013C92.6233 23.013 92.9803 22.9407 93.279 22.796C93.5777 22.6467 93.818 22.4577 94 22.229C94.182 22.0003 94.301 21.7623 94.357 21.515C94.4363 21.291 94.4807 21.039 94.49 20.759C94.504 20.479 94.511 20.255 94.511 20.087L94.987 20.262C94.525 20.332 94.105 20.395 93.727 20.451C93.349 20.507 93.006 20.563 92.698 20.619C92.3947 20.6703 92.124 20.7333 91.886 20.808C91.6853 20.878 91.5057 20.962 91.347 21.06C91.193 21.158 91.0693 21.277 90.976 21.417C90.8873 21.557 90.843 21.7273 90.843 21.928C90.843 22.124 90.892 22.306 90.99 22.474C91.088 22.6373 91.2373 22.768 91.438 22.866C91.6387 22.964 91.8953 23.013 92.208 23.013ZM100.788 24.21C100.083 24.21 99.474 24.035 98.9607 23.685C98.452 23.335 98.0577 22.859 97.7777 22.257C97.5024 21.6503 97.3647 20.969 97.3647 20.213C97.3647 19.4523 97.5047 18.7733 97.7847 18.176C98.0647 17.574 98.4614 17.1003 98.9747 16.755C99.4927 16.405 100.106 16.23 100.816 16.23C101.53 16.23 102.129 16.405 102.615 16.755C103.105 17.1003 103.473 17.574 103.721 18.176C103.973 18.778 104.099 19.457 104.099 20.213C104.099 20.969 103.973 21.648 103.721 22.25C103.469 22.852 103.098 23.3303 102.608 23.685C102.118 24.035 101.511 24.21 100.788 24.21ZM100.991 22.887C101.471 22.887 101.863 22.7727 102.167 22.544C102.47 22.3153 102.692 22.0003 102.832 21.599C102.972 21.1977 103.042 20.7357 103.042 20.213C103.042 19.6903 102.969 19.2283 102.825 18.827C102.685 18.4257 102.465 18.113 102.167 17.889C101.873 17.665 101.497 17.553 101.04 17.553C100.554 17.553 100.155 17.672 99.8427 17.91C99.53 18.148 99.2967 18.4677 99.1427 18.869C98.9934 19.2703 98.9187 19.7183 98.9187 20.213C98.9187 20.7123 98.9934 21.165 99.1427 21.571C99.2967 21.9723 99.5254 22.292 99.8287 22.53C100.137 22.768 100.524 22.887 100.991 22.887ZM103.042 24V18.561H102.874V13.92H104.344V24H103.042Z" fill="#3D5CB8"/>
<rect x="1" y="1" width="121" height="36" rx="18" stroke="#3D5CB8"/>
</svg>
