<svg width="25" height="24" viewBox="0 0 25 24" fill="none" xmlns="http://www.w3.org/2000/svg">
<g clip-path="url(#clip0_2519_682)">
<path d="M14.0243 20.5698H11.1323C10.4962 20.5698 9.98047 21.1138 9.98047 21.7849C9.98047 22.456 10.4962 23 11.1323 23H14.0243C14.6605 23 15.1762 22.456 15.1762 21.7849C15.1762 21.1138 14.6605 20.5698 14.0243 20.5698Z" fill="#9F9F9F"/>
<path d="M21.371 17.3684H20.8657C19.9976 17.2576 19.7722 16.4904 19.7177 15.9981V8.33972C19.7177 4.28626 16.6042 1 12.7638 1C8.70694 1 5.41847 4.47088 5.41847 8.75272V15.8394C5.39385 16.3112 5.21894 17.2631 4.22514 17.3684H3.91676C3.49048 17.3684 3.14453 17.7335 3.14453 18.1834C3.14453 18.6334 3.49048 18.9985 3.91676 18.9985H21.3723C21.7986 18.9985 22.1446 18.6334 22.1446 18.1834C22.1446 17.7335 21.7986 17.3684 21.3723 17.3684H21.371Z" fill="#9F9F9F"/>
</g>
<circle cx="18.7363" cy="5.125" r="4.11133" fill="#FF4138" stroke="white"/>
<defs>
<clipPath id="clip0_2519_682">
<rect width="19" height="22" fill="white" transform="translate(3.14453 1)"/>
</clipPath>
</defs>
</svg>
