<svg width="36" height="35" viewBox="0 0 36 35" fill="none" xmlns="http://www.w3.org/2000/svg">
<path d="M18.0013 0.335938C14.5896 0.335777 11.2544 1.34734 8.41751 3.2427C5.58065 5.13806 3.36955 7.83208 2.06381 10.9841C0.758071 14.1361 0.416347 17.6045 1.08185 20.9508C1.74736 24.297 3.3902 27.3707 5.80262 29.7833C8.21505 32.1958 11.2887 33.8388 14.6349 34.5045C17.9811 35.1701 21.4496 34.8286 24.6016 33.523C27.7537 32.2174 30.4478 30.0064 32.3433 27.1696C34.2388 24.3329 35.2505 20.9977 35.2505 17.586C35.249 13.0116 33.4313 8.62496 30.1968 5.39031C26.9622 2.15565 22.5757 0.337661 18.0013 0.335938ZM14.5513 26.2106L5.92591 17.586L8.35839 15.1535L14.5513 21.3302L27.6435 8.23641L30.0759 10.686L14.5513 26.2106Z" fill="#009900"/>
</svg>
